solid OpenSCAD_Model
  facet normal 1 -0 0
    outer loop
      vertex 201.25 0 3
      vertex 201.25 126.5 0
      vertex 201.25 126.5 3
    endloop
  endfacet
  facet normal 1 0 0
    outer loop
      vertex 201.25 126.5 0
      vertex 201.25 0 3
      vertex 201.25 0 0
    endloop
  endfacet
  facet normal 0 0 1
    outer loop
      vertex 201.25 126.5 3
      vertex 159 91 3
      vertex 201.25 0 3
    endloop
  endfacet
  facet normal 0 0 1
    outer loop
      vertex 201.25 126.5 3
      vertex 153 91 3
      vertex 159 91 3
    endloop
  endfacet
  facet normal 0 0 1
    outer loop
      vertex 153 91 3
      vertex 147 91 3
      vertex 153 35 3
    endloop
  endfacet
  facet normal 0 0 1
    outer loop
      vertex 201.25 126.5 3
      vertex 147 91 3
      vertex 153 91 3
    endloop
  endfacet
  facet normal 0 0 1
    outer loop
      vertex 201.25 126.5 3
      vertex 141 91 3
      vertex 147 91 3
    endloop
  endfacet
  facet normal 0 0 1
    outer loop
      vertex 141 91 3
      vertex 135 91 3
      vertex 141 35 3
    endloop
  endfacet
  facet normal 0 0 1
    outer loop
      vertex 201.25 126.5 3
      vertex 135 91 3
      vertex 141 91 3
    endloop
  endfacet
  facet normal 0 0 1
    outer loop
      vertex 201.25 126.5 3
      vertex 129 91 3
      vertex 135 91 3
    endloop
  endfacet
  facet normal 0 0 1
    outer loop
      vertex 129 91 3
      vertex 123 91 3
      vertex 129 35 3
    endloop
  endfacet
  facet normal 0 0 1
    outer loop
      vertex 201.25 126.5 3
      vertex 123 91 3
      vertex 129 91 3
    endloop
  endfacet
  facet normal 0 0 1
    outer loop
      vertex 201.25 126.5 3
      vertex 117 91 3
      vertex 123 91 3
    endloop
  endfacet
  facet normal 0 0 1
    outer loop
      vertex 117 91 3
      vertex 111 91 3
      vertex 117 35 3
    endloop
  endfacet
  facet normal 0 0 1
    outer loop
      vertex 201.25 126.5 3
      vertex 111 91 3
      vertex 117 91 3
    endloop
  endfacet
  facet normal 0 0 1
    outer loop
      vertex 201.25 126.5 3
      vertex 105 91 3
      vertex 111 91 3
    endloop
  endfacet
  facet normal 0 0 1
    outer loop
      vertex 105 91 3
      vertex 99 91 3
      vertex 105 35 3
    endloop
  endfacet
  facet normal 0 0 1
    outer loop
      vertex 201.25 126.5 3
      vertex 99 91 3
      vertex 105 91 3
    endloop
  endfacet
  facet normal -0 0 1
    outer loop
      vertex 0 126.5 3
      vertex 99 91 3
      vertex 201.25 126.5 3
    endloop
  endfacet
  facet normal 0 0 1
    outer loop
      vertex 93 91 3
      vertex 87 91 3
      vertex 93 35 3
    endloop
  endfacet
  facet normal 0 0 1
    outer loop
      vertex 99 91 3
      vertex 0 126.5 3
      vertex 93 91 3
    endloop
  endfacet
  facet normal 0 0 1
    outer loop
      vertex 93 91 3
      vertex 0 126.5 3
      vertex 87 91 3
    endloop
  endfacet
  facet normal 0 0 1
    outer loop
      vertex 81 91 3
      vertex 75 91 3
      vertex 81 35 3
    endloop
  endfacet
  facet normal 0 0 1
    outer loop
      vertex 87 91 3
      vertex 0 126.5 3
      vertex 81 91 3
    endloop
  endfacet
  facet normal 0 0 1
    outer loop
      vertex 81 91 3
      vertex 0 126.5 3
      vertex 75 91 3
    endloop
  endfacet
  facet normal 0 0 1
    outer loop
      vertex 69 91 3
      vertex 63 91 3
      vertex 69 35 3
    endloop
  endfacet
  facet normal 0 0 1
    outer loop
      vertex 75 91 3
      vertex 0 126.5 3
      vertex 69 91 3
    endloop
  endfacet
  facet normal 0 0 1
    outer loop
      vertex 69 91 3
      vertex 0 126.5 3
      vertex 63 91 3
    endloop
  endfacet
  facet normal 0 0 1
    outer loop
      vertex 57 91 3
      vertex 51 91 3
      vertex 57 35 3
    endloop
  endfacet
  facet normal 0 0 1
    outer loop
      vertex 63 91 3
      vertex 0 126.5 3
      vertex 57 91 3
    endloop
  endfacet
  facet normal 0 0 1
    outer loop
      vertex 57 91 3
      vertex 0 126.5 3
      vertex 51 91 3
    endloop
  endfacet
  facet normal 0 0 1
    outer loop
      vertex 45 91 3
      vertex 0 126.5 3
      vertex 45 35 3
    endloop
  endfacet
  facet normal 0 0 1
    outer loop
      vertex 51 91 3
      vertex 0 126.5 3
      vertex 45 91 3
    endloop
  endfacet
  facet normal -0 0 1
    outer loop
      vertex 159 35 3
      vertex 201.25 0 3
      vertex 159 91 3
    endloop
  endfacet
  facet normal -0 0 1
    outer loop
      vertex 153 35 3
      vertex 201.25 0 3
      vertex 159 35 3
    endloop
  endfacet
  facet normal 0 0 1
    outer loop
      vertex 147 35 3
      vertex 153 35 3
      vertex 147 91 3
    endloop
  endfacet
  facet normal -0 0 1
    outer loop
      vertex 147 35 3
      vertex 201.25 0 3
      vertex 153 35 3
    endloop
  endfacet
  facet normal -0 0 1
    outer loop
      vertex 141 35 3
      vertex 201.25 0 3
      vertex 147 35 3
    endloop
  endfacet
  facet normal 0 0 1
    outer loop
      vertex 135 35 3
      vertex 141 35 3
      vertex 135 91 3
    endloop
  endfacet
  facet normal -0 0 1
    outer loop
      vertex 135 35 3
      vertex 201.25 0 3
      vertex 141 35 3
    endloop
  endfacet
  facet normal -0 0 1
    outer loop
      vertex 129 35 3
      vertex 201.25 0 3
      vertex 135 35 3
    endloop
  endfacet
  facet normal 0 0 1
    outer loop
      vertex 123 35 3
      vertex 129 35 3
      vertex 123 91 3
    endloop
  endfacet
  facet normal -0 0 1
    outer loop
      vertex 123 35 3
      vertex 201.25 0 3
      vertex 129 35 3
    endloop
  endfacet
  facet normal -0 0 1
    outer loop
      vertex 117 35 3
      vertex 201.25 0 3
      vertex 123 35 3
    endloop
  endfacet
  facet normal 0 0 1
    outer loop
      vertex 111 35 3
      vertex 117 35 3
      vertex 111 91 3
    endloop
  endfacet
  facet normal -0 0 1
    outer loop
      vertex 111 35 3
      vertex 201.25 0 3
      vertex 117 35 3
    endloop
  endfacet
  facet normal -0 0 1
    outer loop
      vertex 105 35 3
      vertex 201.25 0 3
      vertex 111 35 3
    endloop
  endfacet
  facet normal 0 0 1
    outer loop
      vertex 99 35 3
      vertex 105 35 3
      vertex 99 91 3
    endloop
  endfacet
  facet normal -0 0 1
    outer loop
      vertex 99 35 3
      vertex 201.25 0 3
      vertex 105 35 3
    endloop
  endfacet
  facet normal 0 0 1
    outer loop
      vertex 0 0 3
      vertex 99 35 3
      vertex 93 35 3
    endloop
  endfacet
  facet normal 0 0 1
    outer loop
      vertex 87 35 3
      vertex 93 35 3
      vertex 87 91 3
    endloop
  endfacet
  facet normal 0 0 1
    outer loop
      vertex 0 0 3
      vertex 93 35 3
      vertex 87 35 3
    endloop
  endfacet
  facet normal 0 0 1
    outer loop
      vertex 0 0 3
      vertex 87 35 3
      vertex 81 35 3
    endloop
  endfacet
  facet normal 0 0 1
    outer loop
      vertex 75 35 3
      vertex 81 35 3
      vertex 75 91 3
    endloop
  endfacet
  facet normal 0 0 1
    outer loop
      vertex 0 0 3
      vertex 81 35 3
      vertex 75 35 3
    endloop
  endfacet
  facet normal 0 0 1
    outer loop
      vertex 0 0 3
      vertex 75 35 3
      vertex 69 35 3
    endloop
  endfacet
  facet normal 0 0 1
    outer loop
      vertex 63 35 3
      vertex 69 35 3
      vertex 63 91 3
    endloop
  endfacet
  facet normal 0 0 1
    outer loop
      vertex 0 0 3
      vertex 69 35 3
      vertex 63 35 3
    endloop
  endfacet
  facet normal 0 0 1
    outer loop
      vertex 0 0 3
      vertex 63 35 3
      vertex 57 35 3
    endloop
  endfacet
  facet normal 0 0 1
    outer loop
      vertex 51 35 3
      vertex 57 35 3
      vertex 51 91 3
    endloop
  endfacet
  facet normal 0 0 1
    outer loop
      vertex 0 0 3
      vertex 57 35 3
      vertex 51 35 3
    endloop
  endfacet
  facet normal 0 0 1
    outer loop
      vertex 0 0 3
      vertex 51 35 3
      vertex 45 35 3
    endloop
  endfacet
  facet normal 0 0 1
    outer loop
      vertex 99 35 3
      vertex 0 0 3
      vertex 201.25 0 3
    endloop
  endfacet
  facet normal 0 0 1
    outer loop
      vertex 0 0 3
      vertex 45 35 3
      vertex 0 126.5 3
    endloop
  endfacet
  facet normal 0 0 -1
    outer loop
      vertex 201.25 0 0
      vertex 197.85 3.4 0
      vertex 201.25 126.5 0
    endloop
  endfacet
  facet normal 0 0 -1
    outer loop
      vertex 201.25 0 0
      vertex 195.85 3.4 0
      vertex 197.85 3.4 0
    endloop
  endfacet
  facet normal 0 0 -1
    outer loop
      vertex 195.85 3.4 0
      vertex 159 35 0
      vertex 195.85 123.1 0
    endloop
  endfacet
  facet normal 0 0 -1
    outer loop
      vertex 195.85 3.4 0
      vertex 153 35 0
      vertex 159 35 0
    endloop
  endfacet
  facet normal 0 0 -1
    outer loop
      vertex 153 35 0
      vertex 147 35 0
      vertex 153 91 0
    endloop
  endfacet
  facet normal 0 0 -1
    outer loop
      vertex 195.85 3.4 0
      vertex 147 35 0
      vertex 153 35 0
    endloop
  endfacet
  facet normal 0 0 -1
    outer loop
      vertex 195.85 3.4 0
      vertex 141 35 0
      vertex 147 35 0
    endloop
  endfacet
  facet normal 0 0 -1
    outer loop
      vertex 5.4 3.4 0
      vertex 195.85 3.4 0
      vertex 201.25 0 0
    endloop
  endfacet
  facet normal 0 0 -1
    outer loop
      vertex 141 35 0
      vertex 135 35 0
      vertex 141 91 0
    endloop
  endfacet
  facet normal 0 0 -1
    outer loop
      vertex 195.85 3.4 0
      vertex 135 35 0
      vertex 141 35 0
    endloop
  endfacet
  facet normal 0 0 -1
    outer loop
      vertex 195.85 3.4 0
      vertex 129 35 0
      vertex 135 35 0
    endloop
  endfacet
  facet normal 0 0 -1
    outer loop
      vertex 129 35 0
      vertex 123 35 0
      vertex 129 91 0
    endloop
  endfacet
  facet normal 0 0 -1
    outer loop
      vertex 195.85 3.4 0
      vertex 123 35 0
      vertex 129 35 0
    endloop
  endfacet
  facet normal 0 0 -1
    outer loop
      vertex 195.85 3.4 0
      vertex 117 35 0
      vertex 123 35 0
    endloop
  endfacet
  facet normal 0 0 -1
    outer loop
      vertex 117 35 0
      vertex 111 35 0
      vertex 117 91 0
    endloop
  endfacet
  facet normal 0 0 -1
    outer loop
      vertex 195.85 3.4 0
      vertex 111 35 0
      vertex 117 35 0
    endloop
  endfacet
  facet normal 0 0 -1
    outer loop
      vertex 195.85 3.4 0
      vertex 105 35 0
      vertex 111 35 0
    endloop
  endfacet
  facet normal 0 0 -1
    outer loop
      vertex 105 35 0
      vertex 99 35 0
      vertex 105 91 0
    endloop
  endfacet
  facet normal 0 0 -1
    outer loop
      vertex 195.85 3.4 0
      vertex 99 35 0
      vertex 105 35 0
    endloop
  endfacet
  facet normal 0 0 -1
    outer loop
      vertex 195.85 3.4 0
      vertex 5.4 3.4 0
      vertex 99 35 0
    endloop
  endfacet
  facet normal 0 0 -1
    outer loop
      vertex 93 35 0
      vertex 87 35 0
      vertex 93 91 0
    endloop
  endfacet
  facet normal -0 0 -1
    outer loop
      vertex 99 35 0
      vertex 5.4 3.4 0
      vertex 93 35 0
    endloop
  endfacet
  facet normal -0 0 -1
    outer loop
      vertex 93 35 0
      vertex 5.4 3.4 0
      vertex 87 35 0
    endloop
  endfacet
  facet normal 0 0 -1
    outer loop
      vertex 81 35 0
      vertex 75 35 0
      vertex 81 91 0
    endloop
  endfacet
  facet normal -0 0 -1
    outer loop
      vertex 87 35 0
      vertex 5.4 3.4 0
      vertex 81 35 0
    endloop
  endfacet
  facet normal -0 0 -1
    outer loop
      vertex 81 35 0
      vertex 5.4 3.4 0
      vertex 75 35 0
    endloop
  endfacet
  facet normal 0 0 -1
    outer loop
      vertex 69 35 0
      vertex 63 35 0
      vertex 69 91 0
    endloop
  endfacet
  facet normal -0 0 -1
    outer loop
      vertex 75 35 0
      vertex 5.4 3.4 0
      vertex 69 35 0
    endloop
  endfacet
  facet normal -0 0 -1
    outer loop
      vertex 69 35 0
      vertex 5.4 3.4 0
      vertex 63 35 0
    endloop
  endfacet
  facet normal 0 0 -1
    outer loop
      vertex 57 35 0
      vertex 51 35 0
      vertex 57 91 0
    endloop
  endfacet
  facet normal -0 0 -1
    outer loop
      vertex 63 35 0
      vertex 5.4 3.4 0
      vertex 57 35 0
    endloop
  endfacet
  facet normal -0 0 -1
    outer loop
      vertex 57 35 0
      vertex 5.4 3.4 0
      vertex 51 35 0
    endloop
  endfacet
  facet normal -0 0 -1
    outer loop
      vertex 45 35 0
      vertex 5.4 3.4 0
      vertex 45 91 0
    endloop
  endfacet
  facet normal -0 0 -1
    outer loop
      vertex 51 35 0
      vertex 5.4 3.4 0
      vertex 45 35 0
    endloop
  endfacet
  facet normal 0 0 -1
    outer loop
      vertex 0 0 0
      vertex 5.4 3.4 0
      vertex 201.25 0 0
    endloop
  endfacet
  facet normal -0 0 -1
    outer loop
      vertex 3.4 3.4 0
      vertex 0 0 0
      vertex 3.4 123.1 0
    endloop
  endfacet
  facet normal -0 0 -1
    outer loop
      vertex 5.4 3.4 0
      vertex 0 0 0
      vertex 3.4 3.4 0
    endloop
  endfacet
  facet normal 0 0 -1
    outer loop
      vertex 197.85 123.1 0
      vertex 201.25 126.5 0
      vertex 197.85 3.4 0
    endloop
  endfacet
  facet normal 0 0 -1
    outer loop
      vertex 195.85 123.1 0
      vertex 201.25 126.5 0
      vertex 197.85 123.1 0
    endloop
  endfacet
  facet normal 0 0 -1
    outer loop
      vertex 159 91 0
      vertex 195.85 123.1 0
      vertex 159 35 0
    endloop
  endfacet
  facet normal 0 0 -1
    outer loop
      vertex 153 91 0
      vertex 195.85 123.1 0
      vertex 159 91 0
    endloop
  endfacet
  facet normal 0 0 -1
    outer loop
      vertex 147 91 0
      vertex 153 91 0
      vertex 147 35 0
    endloop
  endfacet
  facet normal 0 0 -1
    outer loop
      vertex 147 91 0
      vertex 195.85 123.1 0
      vertex 153 91 0
    endloop
  endfacet
  facet normal 0 0 -1
    outer loop
      vertex 141 91 0
      vertex 195.85 123.1 0
      vertex 147 91 0
    endloop
  endfacet
  facet normal 0 0 -1
    outer loop
      vertex 135 91 0
      vertex 195.85 123.1 0
      vertex 141 91 0
    endloop
  endfacet
  facet normal 0 0 -1
    outer loop
      vertex 135 91 0
      vertex 141 91 0
      vertex 135 35 0
    endloop
  endfacet
  facet normal 0 0 -1
    outer loop
      vertex 129 91 0
      vertex 195.85 123.1 0
      vertex 135 91 0
    endloop
  endfacet
  facet normal 0 0 -1
    outer loop
      vertex 123 91 0
      vertex 195.85 123.1 0
      vertex 129 91 0
    endloop
  endfacet
  facet normal 0 0 -1
    outer loop
      vertex 123 91 0
      vertex 129 91 0
      vertex 123 35 0
    endloop
  endfacet
  facet normal 0 0 -1
    outer loop
      vertex 117 91 0
      vertex 195.85 123.1 0
      vertex 123 91 0
    endloop
  endfacet
  facet normal 0 0 -1
    outer loop
      vertex 111 91 0
      vertex 195.85 123.1 0
      vertex 117 91 0
    endloop
  endfacet
  facet normal 0 0 -1
    outer loop
      vertex 111 91 0
      vertex 117 91 0
      vertex 111 35 0
    endloop
  endfacet
  facet normal 0 0 -1
    outer loop
      vertex 105 91 0
      vertex 195.85 123.1 0
      vertex 111 91 0
    endloop
  endfacet
  facet normal 0 0 -1
    outer loop
      vertex 99 91 0
      vertex 195.85 123.1 0
      vertex 105 91 0
    endloop
  endfacet
  facet normal 0 0 -1
    outer loop
      vertex 99 91 0
      vertex 105 91 0
      vertex 99 35 0
    endloop
  endfacet
  facet normal 0 0 -1
    outer loop
      vertex 5.4 123.1 0
      vertex 195.85 123.1 0
      vertex 99 91 0
    endloop
  endfacet
  facet normal 0 0 -1
    outer loop
      vertex 5.4 123.1 0
      vertex 99 91 0
      vertex 93 91 0
    endloop
  endfacet
  facet normal 0 0 -1
    outer loop
      vertex 87 91 0
      vertex 93 91 0
      vertex 87 35 0
    endloop
  endfacet
  facet normal 0 0 -1
    outer loop
      vertex 5.4 123.1 0
      vertex 93 91 0
      vertex 87 91 0
    endloop
  endfacet
  facet normal 0 0 -1
    outer loop
      vertex 5.4 123.1 0
      vertex 87 91 0
      vertex 81 91 0
    endloop
  endfacet
  facet normal 0 0 -1
    outer loop
      vertex 75 91 0
      vertex 81 91 0
      vertex 75 35 0
    endloop
  endfacet
  facet normal 0 0 -1
    outer loop
      vertex 5.4 123.1 0
      vertex 81 91 0
      vertex 75 91 0
    endloop
  endfacet
  facet normal 0 0 -1
    outer loop
      vertex 5.4 123.1 0
      vertex 75 91 0
      vertex 69 91 0
    endloop
  endfacet
  facet normal 0 0 -1
    outer loop
      vertex 63 91 0
      vertex 69 91 0
      vertex 63 35 0
    endloop
  endfacet
  facet normal 0 0 -1
    outer loop
      vertex 5.4 123.1 0
      vertex 69 91 0
      vertex 63 91 0
    endloop
  endfacet
  facet normal 0 0 -1
    outer loop
      vertex 5.4 123.1 0
      vertex 63 91 0
      vertex 57 91 0
    endloop
  endfacet
  facet normal 0 0 -1
    outer loop
      vertex 51 91 0
      vertex 57 91 0
      vertex 51 35 0
    endloop
  endfacet
  facet normal 0 0 -1
    outer loop
      vertex 5.4 123.1 0
      vertex 57 91 0
      vertex 51 91 0
    endloop
  endfacet
  facet normal 0 0 -1
    outer loop
      vertex 5.4 123.1 0
      vertex 51 91 0
      vertex 45 91 0
    endloop
  endfacet
  facet normal 0 0 -1
    outer loop
      vertex 5.4 123.1 0
      vertex 45 91 0
      vertex 5.4 3.4 0
    endloop
  endfacet
  facet normal 0 0 -1
    outer loop
      vertex 195.85 123.1 0
      vertex 5.4 123.1 0
      vertex 201.25 126.5 0
    endloop
  endfacet
  facet normal 0 0 -1
    outer loop
      vertex 0 126.5 0
      vertex 5.4 123.1 0
      vertex 3.4 123.1 0
    endloop
  endfacet
  facet normal 0 0 -1
    outer loop
      vertex 5.4 123.1 0
      vertex 0 126.5 0
      vertex 201.25 126.5 0
    endloop
  endfacet
  facet normal 0 0 -1
    outer loop
      vertex 0 126.5 0
      vertex 3.4 123.1 0
      vertex 0 0 0
    endloop
  endfacet
  facet normal -1 0 0
    outer loop
      vertex 0 0 0
      vertex 0 126.5 3
      vertex 0 126.5 0
    endloop
  endfacet
  facet normal -1 -0 0
    outer loop
      vertex 0 126.5 3
      vertex 0 0 0
      vertex 0 0 3
    endloop
  endfacet
  facet normal 0 1 -0
    outer loop
      vertex 201.25 126.5 0
      vertex 0 126.5 3
      vertex 201.25 126.5 3
    endloop
  endfacet
  facet normal 0 1 0
    outer loop
      vertex 0 126.5 3
      vertex 201.25 126.5 0
      vertex 0 126.5 0
    endloop
  endfacet
  facet normal 0 -1 0
    outer loop
      vertex 0 0 0
      vertex 201.25 0 3
      vertex 0 0 3
    endloop
  endfacet
  facet normal 0 -1 -0
    outer loop
      vertex 201.25 0 3
      vertex 0 0 0
      vertex 201.25 0 0
    endloop
  endfacet
  facet normal 1 -0 0
    outer loop
      vertex 5.4 3.4 0
      vertex 5.4 123.1 -3
      vertex 5.4 123.1 0
    endloop
  endfacet
  facet normal 1 0 0
    outer loop
      vertex 5.4 123.1 -3
      vertex 5.4 3.4 0
      vertex 5.4 3.4 -3
    endloop
  endfacet
  facet normal 0 0 -1
    outer loop
      vertex 3.4 3.4 -3
      vertex 5.4 123.1 -3
      vertex 5.4 3.4 -3
    endloop
  endfacet
  facet normal -0 0 -1
    outer loop
      vertex 5.4 123.1 -3
      vertex 3.4 3.4 -3
      vertex 3.4 123.1 -3
    endloop
  endfacet
  facet normal -1 0 0
    outer loop
      vertex 3.4 3.4 -3
      vertex 3.4 123.1 0
      vertex 3.4 123.1 -3
    endloop
  endfacet
  facet normal -1 -0 0
    outer loop
      vertex 3.4 123.1 0
      vertex 3.4 3.4 -3
      vertex 3.4 3.4 0
    endloop
  endfacet
  facet normal 0 1 -0
    outer loop
      vertex 5.4 123.1 -3
      vertex 3.4 123.1 0
      vertex 5.4 123.1 0
    endloop
  endfacet
  facet normal 0 1 0
    outer loop
      vertex 3.4 123.1 0
      vertex 5.4 123.1 -3
      vertex 3.4 123.1 -3
    endloop
  endfacet
  facet normal 0 -1 0
    outer loop
      vertex 3.4 3.4 -3
      vertex 5.4 3.4 0
      vertex 3.4 3.4 0
    endloop
  endfacet
  facet normal 0 -1 -0
    outer loop
      vertex 5.4 3.4 0
      vertex 3.4 3.4 -3
      vertex 5.4 3.4 -3
    endloop
  endfacet
  facet normal 1 -0 0
    outer loop
      vertex 197.85 3.4 0
      vertex 197.85 123.1 -3
      vertex 197.85 123.1 0
    endloop
  endfacet
  facet normal 1 0 0
    outer loop
      vertex 197.85 123.1 -3
      vertex 197.85 3.4 0
      vertex 197.85 3.4 -3
    endloop
  endfacet
  facet normal 0 0 -1
    outer loop
      vertex 195.85 3.4 -3
      vertex 197.85 123.1 -3
      vertex 197.85 3.4 -3
    endloop
  endfacet
  facet normal -0 0 -1
    outer loop
      vertex 197.85 123.1 -3
      vertex 195.85 3.4 -3
      vertex 195.85 123.1 -3
    endloop
  endfacet
  facet normal -1 0 0
    outer loop
      vertex 195.85 3.4 -3
      vertex 195.85 123.1 0
      vertex 195.85 123.1 -3
    endloop
  endfacet
  facet normal -1 -0 0
    outer loop
      vertex 195.85 123.1 0
      vertex 195.85 3.4 -3
      vertex 195.85 3.4 0
    endloop
  endfacet
  facet normal 0 1 -0
    outer loop
      vertex 197.85 123.1 -3
      vertex 195.85 123.1 0
      vertex 197.85 123.1 0
    endloop
  endfacet
  facet normal 0 1 0
    outer loop
      vertex 195.85 123.1 0
      vertex 197.85 123.1 -3
      vertex 195.85 123.1 -3
    endloop
  endfacet
  facet normal 0 -1 0
    outer loop
      vertex 195.85 3.4 -3
      vertex 197.85 3.4 0
      vertex 195.85 3.4 0
    endloop
  endfacet
  facet normal 0 -1 -0
    outer loop
      vertex 197.85 3.4 0
      vertex 195.85 3.4 -3
      vertex 197.85 3.4 -3
    endloop
  endfacet
  facet normal -1 0 0
    outer loop
      vertex 51 35 0
      vertex 51 91 3
      vertex 51 91 0
    endloop
  endfacet
  facet normal -1 -0 0
    outer loop
      vertex 51 91 3
      vertex 51 35 0
      vertex 51 35 3
    endloop
  endfacet
  facet normal 1 -0 0
    outer loop
      vertex 45 35 3
      vertex 45 91 0
      vertex 45 91 3
    endloop
  endfacet
  facet normal 1 0 0
    outer loop
      vertex 45 91 0
      vertex 45 35 3
      vertex 45 35 0
    endloop
  endfacet
  facet normal 0 -1 0
    outer loop
      vertex 45 91 0
      vertex 51 91 3
      vertex 45 91 3
    endloop
  endfacet
  facet normal 0 -1 -0
    outer loop
      vertex 51 91 3
      vertex 45 91 0
      vertex 51 91 0
    endloop
  endfacet
  facet normal 0 1 -0
    outer loop
      vertex 51 35 0
      vertex 45 35 3
      vertex 51 35 3
    endloop
  endfacet
  facet normal 0 1 0
    outer loop
      vertex 45 35 3
      vertex 51 35 0
      vertex 45 35 0
    endloop
  endfacet
  facet normal -1 0 0
    outer loop
      vertex 63 35 0
      vertex 63 91 3
      vertex 63 91 0
    endloop
  endfacet
  facet normal -1 -0 0
    outer loop
      vertex 63 91 3
      vertex 63 35 0
      vertex 63 35 3
    endloop
  endfacet
  facet normal 1 -0 0
    outer loop
      vertex 57 35 3
      vertex 57 91 0
      vertex 57 91 3
    endloop
  endfacet
  facet normal 1 0 0
    outer loop
      vertex 57 91 0
      vertex 57 35 3
      vertex 57 35 0
    endloop
  endfacet
  facet normal 0 -1 0
    outer loop
      vertex 57 91 0
      vertex 63 91 3
      vertex 57 91 3
    endloop
  endfacet
  facet normal 0 -1 -0
    outer loop
      vertex 63 91 3
      vertex 57 91 0
      vertex 63 91 0
    endloop
  endfacet
  facet normal 0 1 -0
    outer loop
      vertex 63 35 0
      vertex 57 35 3
      vertex 63 35 3
    endloop
  endfacet
  facet normal 0 1 0
    outer loop
      vertex 57 35 3
      vertex 63 35 0
      vertex 57 35 0
    endloop
  endfacet
  facet normal -1 0 0
    outer loop
      vertex 75 35 0
      vertex 75 91 3
      vertex 75 91 0
    endloop
  endfacet
  facet normal -1 -0 0
    outer loop
      vertex 75 91 3
      vertex 75 35 0
      vertex 75 35 3
    endloop
  endfacet
  facet normal 1 -0 0
    outer loop
      vertex 69 35 3
      vertex 69 91 0
      vertex 69 91 3
    endloop
  endfacet
  facet normal 1 0 0
    outer loop
      vertex 69 91 0
      vertex 69 35 3
      vertex 69 35 0
    endloop
  endfacet
  facet normal 0 -1 0
    outer loop
      vertex 69 91 0
      vertex 75 91 3
      vertex 69 91 3
    endloop
  endfacet
  facet normal 0 -1 -0
    outer loop
      vertex 75 91 3
      vertex 69 91 0
      vertex 75 91 0
    endloop
  endfacet
  facet normal 0 1 -0
    outer loop
      vertex 75 35 0
      vertex 69 35 3
      vertex 75 35 3
    endloop
  endfacet
  facet normal 0 1 0
    outer loop
      vertex 69 35 3
      vertex 75 35 0
      vertex 69 35 0
    endloop
  endfacet
  facet normal -1 0 0
    outer loop
      vertex 87 35 0
      vertex 87 91 3
      vertex 87 91 0
    endloop
  endfacet
  facet normal -1 -0 0
    outer loop
      vertex 87 91 3
      vertex 87 35 0
      vertex 87 35 3
    endloop
  endfacet
  facet normal 1 -0 0
    outer loop
      vertex 81 35 3
      vertex 81 91 0
      vertex 81 91 3
    endloop
  endfacet
  facet normal 1 0 0
    outer loop
      vertex 81 91 0
      vertex 81 35 3
      vertex 81 35 0
    endloop
  endfacet
  facet normal 0 -1 0
    outer loop
      vertex 81 91 0
      vertex 87 91 3
      vertex 81 91 3
    endloop
  endfacet
  facet normal 0 -1 -0
    outer loop
      vertex 87 91 3
      vertex 81 91 0
      vertex 87 91 0
    endloop
  endfacet
  facet normal 0 1 -0
    outer loop
      vertex 87 35 0
      vertex 81 35 3
      vertex 87 35 3
    endloop
  endfacet
  facet normal 0 1 0
    outer loop
      vertex 81 35 3
      vertex 87 35 0
      vertex 81 35 0
    endloop
  endfacet
  facet normal -1 0 0
    outer loop
      vertex 99 35 0
      vertex 99 91 3
      vertex 99 91 0
    endloop
  endfacet
  facet normal -1 -0 0
    outer loop
      vertex 99 91 3
      vertex 99 35 0
      vertex 99 35 3
    endloop
  endfacet
  facet normal 1 -0 0
    outer loop
      vertex 93 35 3
      vertex 93 91 0
      vertex 93 91 3
    endloop
  endfacet
  facet normal 1 0 0
    outer loop
      vertex 93 91 0
      vertex 93 35 3
      vertex 93 35 0
    endloop
  endfacet
  facet normal 0 -1 0
    outer loop
      vertex 93 91 0
      vertex 99 91 3
      vertex 93 91 3
    endloop
  endfacet
  facet normal 0 -1 -0
    outer loop
      vertex 99 91 3
      vertex 93 91 0
      vertex 99 91 0
    endloop
  endfacet
  facet normal 0 1 -0
    outer loop
      vertex 99 35 0
      vertex 93 35 3
      vertex 99 35 3
    endloop
  endfacet
  facet normal 0 1 0
    outer loop
      vertex 93 35 3
      vertex 99 35 0
      vertex 93 35 0
    endloop
  endfacet
  facet normal -1 0 0
    outer loop
      vertex 111 35 0
      vertex 111 91 3
      vertex 111 91 0
    endloop
  endfacet
  facet normal -1 -0 0
    outer loop
      vertex 111 91 3
      vertex 111 35 0
      vertex 111 35 3
    endloop
  endfacet
  facet normal 1 -0 0
    outer loop
      vertex 105 35 3
      vertex 105 91 0
      vertex 105 91 3
    endloop
  endfacet
  facet normal 1 0 0
    outer loop
      vertex 105 91 0
      vertex 105 35 3
      vertex 105 35 0
    endloop
  endfacet
  facet normal 0 -1 0
    outer loop
      vertex 105 91 0
      vertex 111 91 3
      vertex 105 91 3
    endloop
  endfacet
  facet normal 0 -1 -0
    outer loop
      vertex 111 91 3
      vertex 105 91 0
      vertex 111 91 0
    endloop
  endfacet
  facet normal 0 1 -0
    outer loop
      vertex 111 35 0
      vertex 105 35 3
      vertex 111 35 3
    endloop
  endfacet
  facet normal 0 1 0
    outer loop
      vertex 105 35 3
      vertex 111 35 0
      vertex 105 35 0
    endloop
  endfacet
  facet normal -1 0 0
    outer loop
      vertex 123 35 0
      vertex 123 91 3
      vertex 123 91 0
    endloop
  endfacet
  facet normal -1 -0 0
    outer loop
      vertex 123 91 3
      vertex 123 35 0
      vertex 123 35 3
    endloop
  endfacet
  facet normal 1 -0 0
    outer loop
      vertex 117 35 3
      vertex 117 91 0
      vertex 117 91 3
    endloop
  endfacet
  facet normal 1 0 0
    outer loop
      vertex 117 91 0
      vertex 117 35 3
      vertex 117 35 0
    endloop
  endfacet
  facet normal 0 -1 0
    outer loop
      vertex 117 91 0
      vertex 123 91 3
      vertex 117 91 3
    endloop
  endfacet
  facet normal 0 -1 -0
    outer loop
      vertex 123 91 3
      vertex 117 91 0
      vertex 123 91 0
    endloop
  endfacet
  facet normal 0 1 -0
    outer loop
      vertex 123 35 0
      vertex 117 35 3
      vertex 123 35 3
    endloop
  endfacet
  facet normal 0 1 0
    outer loop
      vertex 117 35 3
      vertex 123 35 0
      vertex 117 35 0
    endloop
  endfacet
  facet normal -1 0 0
    outer loop
      vertex 135 35 0
      vertex 135 91 3
      vertex 135 91 0
    endloop
  endfacet
  facet normal -1 -0 0
    outer loop
      vertex 135 91 3
      vertex 135 35 0
      vertex 135 35 3
    endloop
  endfacet
  facet normal 1 -0 0
    outer loop
      vertex 129 35 3
      vertex 129 91 0
      vertex 129 91 3
    endloop
  endfacet
  facet normal 1 0 0
    outer loop
      vertex 129 91 0
      vertex 129 35 3
      vertex 129 35 0
    endloop
  endfacet
  facet normal 0 -1 0
    outer loop
      vertex 129 91 0
      vertex 135 91 3
      vertex 129 91 3
    endloop
  endfacet
  facet normal 0 -1 -0
    outer loop
      vertex 135 91 3
      vertex 129 91 0
      vertex 135 91 0
    endloop
  endfacet
  facet normal 0 1 -0
    outer loop
      vertex 135 35 0
      vertex 129 35 3
      vertex 135 35 3
    endloop
  endfacet
  facet normal 0 1 0
    outer loop
      vertex 129 35 3
      vertex 135 35 0
      vertex 129 35 0
    endloop
  endfacet
  facet normal -1 0 0
    outer loop
      vertex 147 35 0
      vertex 147 91 3
      vertex 147 91 0
    endloop
  endfacet
  facet normal -1 -0 0
    outer loop
      vertex 147 91 3
      vertex 147 35 0
      vertex 147 35 3
    endloop
  endfacet
  facet normal 1 -0 0
    outer loop
      vertex 141 35 3
      vertex 141 91 0
      vertex 141 91 3
    endloop
  endfacet
  facet normal 1 0 0
    outer loop
      vertex 141 91 0
      vertex 141 35 3
      vertex 141 35 0
    endloop
  endfacet
  facet normal 0 -1 0
    outer loop
      vertex 141 91 0
      vertex 147 91 3
      vertex 141 91 3
    endloop
  endfacet
  facet normal 0 -1 -0
    outer loop
      vertex 147 91 3
      vertex 141 91 0
      vertex 147 91 0
    endloop
  endfacet
  facet normal 0 1 -0
    outer loop
      vertex 147 35 0
      vertex 141 35 3
      vertex 147 35 3
    endloop
  endfacet
  facet normal 0 1 0
    outer loop
      vertex 141 35 3
      vertex 147 35 0
      vertex 141 35 0
    endloop
  endfacet
  facet normal -1 0 0
    outer loop
      vertex 159 35 0
      vertex 159 91 3
      vertex 159 91 0
    endloop
  endfacet
  facet normal -1 -0 0
    outer loop
      vertex 159 91 3
      vertex 159 35 0
      vertex 159 35 3
    endloop
  endfacet
  facet normal 1 -0 0
    outer loop
      vertex 153 35 3
      vertex 153 91 0
      vertex 153 91 3
    endloop
  endfacet
  facet normal 1 0 0
    outer loop
      vertex 153 91 0
      vertex 153 35 3
      vertex 153 35 0
    endloop
  endfacet
  facet normal 0 -1 0
    outer loop
      vertex 153 91 0
      vertex 159 91 3
      vertex 153 91 3
    endloop
  endfacet
  facet normal 0 -1 -0
    outer loop
      vertex 159 91 3
      vertex 153 91 0
      vertex 159 91 0
    endloop
  endfacet
  facet normal 0 1 -0
    outer loop
      vertex 159 35 0
      vertex 153 35 3
      vertex 159 35 3
    endloop
  endfacet
  facet normal 0 1 0
    outer loop
      vertex 153 35 3
      vertex 159 35 0
      vertex 153 35 0
    endloop
  endfacet
endsolid OpenSCAD_Model
